<?xml version="1.0" standalone="no"?>
<!DOCTYPE svg PUBLIC "-//W3C//DTD SVG 20010904//EN"
 "http://www.w3.org/TR/2001/REC-SVG-20010904/DTD/svg10.dtd">
<svg version="1.0" xmlns="http://www.w3.org/2000/svg"
 width="169.000000pt" height="169.000000pt" viewBox="0 0 169.000000 169.000000"
 preserveAspectRatio="xMidYMid meet">
<metadata>
Created by potrace 1.14, written by Peter Selinger 2001-2017
</metadata>
<g transform="translate(0.000000,169.000000) scale(0.100000,-0.100000)"
fill="#000000" stroke="none">
<path d="M582 1519 c-25 -24 -129 -219 -162 -304 -4 -11 -17 -40 -28 -65 -11
-25 -34 -82 -51 -125 -16 -44 -35 -93 -42 -110 -7 -16 -13 -34 -15 -40 -3 -9
-97 -268 -111 -305 -33 -85 -50 -140 -45 -141 4 -1 111 -2 239 -3 l232 -1 22
60 c13 33 24 65 25 70 4 15 113 307 123 330 5 11 28 66 50 122 l41 103 -39 92
c-83 195 -151 317 -189 337 -15 8 -25 4 -50 -20z m76 -61 c32 -47 129 -246
162 -334 11 -28 7 -27 -46 13 -17 13 -35 23 -40 23 -5 0 -39 -29 -74 -65 l-64
-65 -41 40 -40 39 -68 -50 c-65 -48 -89 -57 -71 -27 5 7 9 18 10 23 4 19 91
220 120 275 15 30 28 57 29 60 1 17 69 110 81 110 7 0 26 -19 42 -42z"/>
<path d="M1001 1297 c-61 -89 -156 -305 -256 -582 -26 -71 -60 -164 -75 -205
-16 -41 -27 -77 -25 -79 6 -5 795 -4 801 2 11 11 -164 481 -259 693 -58 132
-111 214 -136 214 -12 0 -32 -17 -50 -43z m92 -46 c8 -14 21 -39 30 -56 15
-27 26 -53 70 -155 22 -50 77 -192 77 -197 0 -7 -85 54 -99 71 -18 22 -20 21
-66 -20 l-40 -35 -41 43 c-84 88 -79 86 -124 49 -22 -18 -40 -30 -40 -27 0 13
67 172 106 251 65 131 91 147 127 76z"/>
</g>
</svg>
